<svg xmlns="http://www.w3.org/2000/svg" width="192" height="192" viewBox="0 0 192 192"><defs><style>.a{fill:#fff;}.b{fill:#0f2538;}</style></defs><circle class="a" cx="96" cy="96" r="96"/><path class="b" d="M383.928,482.594c0-3.267-.121-6.485.046-9.69a5.164,5.164,0,0,1,2.581-4.028c4.792-3.05,9.616-6.052,14.428-9.068a4.608,4.608,0,0,1,.787-.217c-.16,3.525-.093,6.95-.573,10.294a5.949,5.949,0,0,1-2.5,3.53c-4.671,3.141-9.5,6.039-14.281,9.032A2.065,2.065,0,0,1,383.928,482.594Z" transform="translate(-284.818 -340.986)"/><path class="b" d="M383.053,418.039c0-3.045-.1-5.84.034-8.625a6.537,6.537,0,0,1,3.326-5.517c4.387-2.671,8.715-5.419,13.068-8.147.41-.258.841-.48,1.406-.8,0,3.226.155,6.3-.052,9.35a6.094,6.094,0,0,1-3.161,4.823c-4.552,2.779-9.084,5.59-13.623,8.387C383.806,417.673,383.543,417.781,383.053,418.039Z" transform="translate(-284.173 -293.027)"/><path class="b" d="M317.194,224.251c-5.259-3.329-10.261-6.434-15.19-9.646a5.868,5.868,0,0,1-2.643-4.684c-.152-2.926-.039-5.863-.039-8.787.2-.023.317-.08.379-.041,4.872,3.032,9.76,6.041,14.6,9.125a6.17,6.17,0,0,1,2.859,5.035C317.308,218.132,317.194,221.02,317.194,224.251Z" transform="translate(-222.048 -149.188)"/><path class="b" d="M317.218,482.685l-6.71-4.212c-2.622-1.641-5.249-3.27-7.863-4.921a6.962,6.962,0,0,1-3.355-6.15c-.039-2.627,0-5.187,0-8.072.617.333,1.076.545,1.5.813,4.217,2.663,8.413,5.355,12.645,8a7.5,7.5,0,0,1,3.8,6.968C317.18,477.513,317.218,479.908,317.218,482.685Z" transform="translate(-222.041 -340.793)"/><path class="b" d="M401.573,201c0,3.182.139,6.315-.054,9.425a5.522,5.522,0,0,1-2.728,4.286c-4.813,3.019-9.667,5.969-14.511,8.942a1.5,1.5,0,0,1-.408.106c0-3.182-.108-6.341.044-9.486a5.185,5.185,0,0,1,2.606-4.018c4.828-3.1,9.706-6.1,14.568-9.138A1.827,1.827,0,0,1,401.573,201Z" transform="translate(-284.781 -149.129)"/><path class="b" d="M299.377,329.58c2.622,1.631,5.063,3.146,7.5,4.666q3.355,2.1,6.71,4.212a7.4,7.4,0,0,1,3.667,6.614v7.806l-10.965-6.846c-1.228-.774-2.439-1.548-3.685-2.294a6.08,6.08,0,0,1-3.184-4.968C299.243,335.8,299.377,332.821,299.377,329.58Z" transform="translate(-222.082 -244.527)"/><path class="b" d="M317,288.713l-6.792-4.284-7.585-4.795a6.763,6.763,0,0,1-3.332-5.7c-.1-2.741-.021-5.486-.021-8.516.6.325,1.061.542,1.492.81,4.307,2.7,8.6,5.419,12.916,8.111a6.525,6.525,0,0,1,3.334,6.093C316.95,283.077,317,285.719,317,288.713Z" transform="translate(-222.018 -196.925)"/><path class="b" d="M401.626,265.9c0,2.95.083,5.75-.028,8.545a6.235,6.235,0,0,1-2.823,5.21c-4.738,3.058-9.53,6.036-14.3,9.032a2,2,0,0,1-.477.132,81.024,81.024,0,0,1,.119-9.582,6.392,6.392,0,0,1,2.524-4.023c4.684-3.223,9.579-6.137,14.4-9.159A2.734,2.734,0,0,1,401.626,265.9Z" transform="translate(-284.833 -197.281)"/><path class="b" d="M401.776,329.2c0,3.417.09,6.452-.034,9.5a5.179,5.179,0,0,1-2.323,4.188c-5.009,3.241-10.093,6.372-15.277,9.623,0-3.324-.2-6.514.1-9.657a5.582,5.582,0,0,1,2.08-3.646C391.283,335.788,396.414,332.632,401.776,329.2Z" transform="translate(-284.961 -244.245)"/><path class="b" d="M299.271,394.4c5.3,3.319,10.39,6.452,15.4,9.685a5.653,5.653,0,0,1,2.462,4.612c.126,2.839.034,5.677.034,8.71a10.94,10.94,0,0,1-1.146-.529c-4.586-2.839-9.182-5.649-13.742-8.516a6.313,6.313,0,0,1-2.978-5.275C299.175,400.292,299.271,397.492,299.271,394.4Z" transform="translate(-222.014 -292.619)"/><path class="b" d="M368.23,569.41h3.889a1.262,1.262,0,0,1,.1.493q.016,6.514,0,13.027v.449c-.1,1.249-.681,2.165-2,2.157s-1.938-.947-1.954-2.194c-.039-2.839-.021-5.677-.023-8.534Z" transform="translate(-273.203 -422.465)"/><rect class="b" width="3.662" height="19.355" transform="translate(96.364 32.516)"/><rect class="b" width="3.662" height="19.355" transform="translate(107.871 40.364) rotate(90)"/></svg>