<svg xmlns="http://www.w3.org/2000/svg" width="188" height="188" viewBox="0 0 188 188"><defs><style>.a{fill:#fff;}.b{fill:#0f2538;}</style></defs><circle class="a" cx="94" cy="94" r="94"/><circle class="b" cx="62.667" cy="62.667" r="62.667" transform="translate(31.333 31.333)"/><path class="a" d="M270.788,314.931H285.1v18.7a40.118,40.118,0,0,1-6.55,1.592,42.523,42.523,0,0,1-6.282.457q-8.167,0-12.473-4.8T255.5,317.1q0-8.733,5-13.62t13.857-4.887a26.813,26.813,0,0,1,10.709,2.221l-2.542,6.12a18.153,18.153,0,0,0-8.217-1.973,10.148,10.148,0,0,0-7.947,3.33q-2.984,3.33-2.984,8.958,0,5.872,2.406,8.97a8.317,8.317,0,0,0,7,3.1,24.763,24.763,0,0,0,4.859-.493V321.3h-6.845Z" transform="translate(-190.938 -223.14)"/><path class="a" d="M414.2,336.739H406.67V300.66h20.677v6.269H414.2v9.3h12.24v6.246H414.2Z" transform="translate(-303.909 -224.687)"/></svg>