<svg xmlns="http://www.w3.org/2000/svg" width="188" height="188" viewBox="0 0 188 188"><defs><style>.a{fill:#fff;}.b{fill:#0f2538;}</style></defs><circle class="a" cx="94" cy="94" r="94"/><rect class="b" width="3.586" height="18.952" transform="translate(130.389 39.666) rotate(45)"/><rect class="b" width="3.586" height="18.952" transform="translate(132.92 53.067) rotate(135)"/><path class="a" d="M317.559,232.36c0-9.6-.452-19.237.152-28.806.445-7.058-1.42-12.556-6.476-17.4-1.42-1.362-2.1-3.9-2.347-5.989-.452-3.854-2.358-6.095-6.317-6.128q-11.664-.1-23.326,0c-3.957.035-5.832,2.274-6.241,6.186a13.937,13.937,0,0,1-2.15,5.766c-1.329,2.1-3.363,3.752-4.766,5.812a8.888,8.888,0,0,0-1.69,4.586c-.1,23.78-.04,47.563-.116,71.346,0,2.764.778,3.805,3.7,3.79,15.207-.126,30.416-.154,45.62.015,3.315.035,4.043-1.17,4.013-4.192C317.481,255.688,317.559,244.024,317.559,232.36Z" transform="translate(-197.5 -130.021)"/><path class="a" d="M317.552,232.364c0,11.662-.078,23.326.056,34.987.033,3.032-.7,4.227-4.013,4.192-15.2-.169-30.414-.142-45.62-.015-2.926.025-3.712-1.011-3.7-3.79.076-23.783.013-47.566.116-71.346a8.846,8.846,0,0,1,1.691-4.586c1.4-2.07,3.437-3.72,4.766-5.812a13.936,13.936,0,0,0,2.15-5.766c.409-3.917,2.274-6.15,6.241-6.186q11.662-.1,23.326,0c3.962.033,5.867,2.274,6.317,6.128.253,2.087.927,4.627,2.348,5.989,5.054,4.847,6.921,10.345,6.476,17.4C317.1,213.129,317.552,222.761,317.552,232.364Zm-20.5,36.048v-72.34H267.643v72.34Zm17.387.038v-4.437c0-20.8-.349-41.61.2-62.4.179-6.762-2.939-10.744-7.189-14.856-4.526,4.1-7.424,8.243-7.26,14.947.505,20.9.184,41.825.2,62.74,0,1.309.126,2.62.2,4Zm-10.7-82.834c-7.793,0-15.31.518-22.717-.164-5.913-.546-8.591,2.6-11.518,7.229,7.793,0,15.187-.488,22.489.152C297.905,193.343,300.915,190.453,303.742,185.616Zm-27.588-3.308h29.762c.119-4.548-.665-5.4-4.783-5.42q-10.267-.043-20.536,0C276.4,176.911,275.5,178.061,276.154,182.309Z" transform="translate(-197.492 -130.025)"/><path class="b" d="M307.028,333.72H277.62V261.38h29.408Z" transform="translate(-207.469 -195.332)"/><path class="b" d="M420.669,306.219H406.815c-.071-1.382-.195-2.694-.2-4-.013-20.915.318-41.838-.2-62.74-.164-6.7,2.734-10.85,7.26-14.947,4.25,4.111,7.368,8.086,7.189,14.856-.548,20.786-.2,41.595-.2,62.4Z" transform="translate(-303.718 -167.794)"/><path class="b" d="M319.212,219.332c-2.828,4.844-5.837,7.735-11.753,7.217-7.3-.639-14.689-.152-22.489-.152,2.929-4.632,5.6-7.775,11.518-7.229C303.9,219.838,311.419,219.332,319.212,219.332Z" transform="translate(-212.961 -163.741)"/><path class="b" d="M310.735,190.809c-.652-4.248.253-5.4,4.442-5.418q10.269-.053,20.536,0c4.119.015,4.9.877,4.783,5.42Z" transform="translate(-232.073 -138.525)"/></svg>