<svg xmlns="http://www.w3.org/2000/svg" width="188" height="188" viewBox="0 0 188 188"><defs><style>.a,.c{fill:#fff;}.b,.d{fill:#0f2538;}.c,.d{stroke:#fff;stroke-miterlimit:10;}.c{stroke-width:9px;}.d{stroke-width:3px;}</style></defs><circle class="a" cx="94" cy="94" r="94"/><rect class="b" width="3.586" height="18.952" transform="translate(125.33 47.623) rotate(45)"/><rect class="b" width="3.586" height="18.952" transform="translate(127.864 61.023) rotate(135)"/><path class="c" d="M283.349,256.343c0,2.666.114,5.337-.038,7.993a3.056,3.056,0,0,0,2.176,3.522c4.548,1.9,8.95,4.1,13.456,6.087a2.771,2.771,0,0,1,1.979,2.969c-.1,6.191-.086,12.382,0,18.573a2.653,2.653,0,0,1-1.86,2.818c-5.066,2.274-10.054,4.705-15.146,6.9a4.877,4.877,0,0,1-3.467,0c-4.531-1.925-9-4-13.418-6.173a4.861,4.861,0,0,0-4.8-.063c-4.475,2.229-9.031,4.3-13.628,6.274a4.548,4.548,0,0,1-3.25,0c-5.16-2.239-10.231-4.69-15.366-6.992a2.5,2.5,0,0,1-1.708-2.663q.106-9.4,0-18.81a2.6,2.6,0,0,1,1.877-2.78c4.649-2.044,9.231-4.248,13.9-6.279a2.59,2.59,0,0,0,1.822-2.807c-.088-5.64.018-11.285-.071-16.93a2.941,2.941,0,0,1,1.984-3.219c5.087-2.221,10.07-4.67,15.161-6.876a4.548,4.548,0,0,1,3.242-.025c5.165,2.231,10.234,4.685,15.376,6.969a2.613,2.613,0,0,1,1.837,2.833C283.274,250.541,283.349,253.444,283.349,256.343ZM247.834,247.9c0,6.254-.043,12.033.063,17.809a2.687,2.687,0,0,0,1.4,1.792c2.929,1.466,5.931,2.78,8.91,4.144,1.728.788,3.464,1.559,5.428,2.441,0-6.191.025-11.977-.043-17.761a2.092,2.092,0,0,0-.953-1.579C257.871,252.469,253.052,250.291,247.834,247.9Zm17.688,26.234c3.856-1.769,7.275-3.669,10.921-4.9,3.934-1.329,5.4-3.477,4.968-7.689-.452-4.377-.1-8.844-.1-13.622-5.253,2.408-10.128,4.622-14.969,6.9a1.655,1.655,0,0,0-.783,1.223c-.056,5.9-.038,11.813-.038,18.09Zm0,3.032c0,6.193,0,12.048.028,17.9a1.735,1.735,0,0,0,.634,1.347c4.841,2.3,9.721,4.526,14.924,6.924,0-6.34.018-12.271-.038-18.194a1.659,1.659,0,0,0-.869-1.19c-4.791-2.272-9.6-4.462-14.684-6.8Zm17.718,26.153c5.213-2.385,10.09-4.6,14.936-6.878a1.686,1.686,0,0,0,.723-1.286c.048-5.905.033-11.808.033-18.014-5.137,2.355-9.958,4.548-14.739,6.8a1.926,1.926,0,0,0-.912,1.415c-.068,5.845-.046,11.694-.046,17.956Zm-37.335,0c0-6.317.013-12.23-.03-18.148a1.455,1.455,0,0,0-.667-1.092c-4.9-2.315-9.835-4.571-14.982-6.944,0,6.163-.018,11.95.03,17.734a1.974,1.974,0,0,0,.7,1.536c4.831,2.292,9.713,4.5,14.939,6.9Zm17.736-26.141c-5.135,2.358-9.951,4.548-14.739,6.807a1.683,1.683,0,0,0-.819,1.223c-.056,5.913-.038,11.826-.038,18.118,5.185-2.385,10-4.566,14.767-6.855a2.194,2.194,0,0,0,.793-1.693c.056-5.726.03-11.439.03-17.612Zm-14.38-30.861c5.054,2.345,9.766,4.548,14.509,6.681a2.413,2.413,0,0,0,1.769-.076c4.69-2.112,9.349-4.3,14.345-6.6-5.018-2.322-9.746-4.528-14.5-6.679a2.158,2.158,0,0,0-1.574-.015C259.059,241.775,254.328,243.976,249.262,246.316Zm17.8,29.33c5.1,2.355,9.746,4.516,14.416,6.633a1.829,1.829,0,0,0,1.349,0c4.8-2.171,9.569-4.387,14.676-6.744-4.97-2.274-9.557-4.43-14.188-6.469a3.025,3.025,0,0,0-2.15.121C276.61,271.219,272.092,273.331,267.066,275.646Zm-5,0c-5.127-2.365-9.835-4.548-14.565-6.686a2.087,2.087,0,0,0-1.529.015c-4.685,2.11-9.349,4.273-14.33,6.57,5.039,2.33,9.764,4.531,14.514,6.676a2.13,2.13,0,0,0,1.564.025c4.67-2.11,9.314-4.273,14.345-6.6Z" transform="translate(-170.595 -177.544)"/><path class="d" d="M305.645,278.42c5.218,2.393,10.037,4.571,14.808,6.845a2.106,2.106,0,0,1,.953,1.579c.068,5.784.043,11.571.043,17.761-1.963-.882-3.7-1.653-5.428-2.441-2.979-1.359-5.981-2.678-8.91-4.144a2.687,2.687,0,0,1-1.4-1.792C305.6,290.443,305.645,284.674,305.645,278.42Z" transform="translate(-228.405 -208.067)"/><path class="d" d="M375.652,304.721c0-6.277-.018-12.185.035-18.09a1.655,1.655,0,0,1,.783-1.223c4.841-2.274,9.716-4.49,14.969-6.9,0,4.786-.351,9.246.1,13.622.435,4.212-1.033,6.36-4.968,7.689C382.927,301.052,379.508,302.958,375.652,304.721Z" transform="translate(-280.727 -208.134)"/><path class="d" d="M375.645,394.21c5.079,2.335,9.893,4.526,14.679,6.78a1.692,1.692,0,0,1,.869,1.19c.056,5.933.038,11.864.038,18.194-5.2-2.4-10.082-4.622-14.924-6.924a1.751,1.751,0,0,1-.634-1.347C375.632,406.258,375.645,400.4,375.645,394.21Z" transform="translate(-280.722 -294.598)"/><path class="d" d="M445.758,420.289c0-6.262-.023-12.111.04-17.964a1.925,1.925,0,0,1,.912-1.415c4.781-2.262,9.6-4.445,14.739-6.8,0,6.206.015,12.109-.033,18.014a1.679,1.679,0,0,1-.723,1.286C455.848,415.692,450.971,417.9,445.758,420.289Z" transform="translate(-333.117 -294.523)"/><path class="d" d="M251.62,420.254c-5.231-2.4-10.108-4.609-14.949-6.914a2,2,0,0,1-.7-1.536c-.048-5.784-.03-11.571-.03-17.734,5.147,2.373,10.077,4.629,14.982,6.944a1.456,1.456,0,0,1,.667,1.092C251.638,408.023,251.62,413.941,251.62,420.254Z" transform="translate(-176.319 -294.493)"/><path class="d" d="M322.078,394.24c0,6.173.025,11.876-.035,17.6a2.178,2.178,0,0,1-.793,1.693c-4.766,2.289-9.582,4.47-14.767,6.855,0-6.292-.018-12.2.038-18.118a1.683,1.683,0,0,1,.819-1.223C312.127,398.791,316.943,396.6,322.078,394.24Z" transform="translate(-229.036 -294.62)"/><path class="d" d="M311.32,251.969c5.066-2.34,9.8-4.548,14.552-6.686a2.158,2.158,0,0,1,1.574.015c4.751,2.15,9.478,4.356,14.5,6.679-5,2.31-9.655,4.485-14.345,6.6a2.413,2.413,0,0,1-1.769.076C321.094,256.519,316.379,254.313,311.32,251.969Z" transform="translate(-232.653 -183.197)"/><path class="d" d="M381.78,368.349c5.026-2.315,9.544-4.427,14.1-6.451a2.985,2.985,0,0,1,2.15-.121c4.632,2.039,9.218,4.185,14.188,6.469-5.107,2.358-9.88,4.574-14.676,6.744a1.829,1.829,0,0,1-1.349,0C391.526,372.865,386.889,370.7,381.78,368.349Z" transform="translate(-285.309 -270.248)"/><path class="d" d="M272.024,368.052c-5.031,2.325-9.675,4.493-14.345,6.6a2.13,2.13,0,0,1-1.564-.025c-4.751-2.145-9.476-4.346-14.514-6.676,4.983-2.294,9.645-4.457,14.33-6.57a2.087,2.087,0,0,1,1.529-.015C262.189,363.5,266.9,365.687,272.024,368.052Z" transform="translate(-180.551 -269.948)"/></svg>