<svg xmlns="http://www.w3.org/2000/svg" width="192" height="192" viewBox="0 0 192 192"><defs><style>.a{fill:#fff;}.b{fill:#0f2538;}</style></defs><circle class="a" cx="96" cy="96" r="96"/><path class="b" d="M128.5,287.295s18.717-31.1,51.613-31.7c13.419-.258,19.832,6.395,33.523,17.827,2.023,1.69,8.715,5.935,8.715,5.935s1.342,1.321,4.023-.658,14.08-15.85,32.181-12.547l-19.443,20.47,18.772,21.13s-16.738,6.612-32.841-14.519c0,0-1.339,0-4.021,2.643s-22.795,17.827-31.512,21.13-25.476,5.283-49.613-15.848C139.9,301.163,129.171,290.6,128.5,287.295Z" transform="translate(-95.339 -189.633)"/></svg>