<svg xmlns="http://www.w3.org/2000/svg" width="192" height="192" viewBox="0 0 192 192"><defs><style>.a,.c{fill:#fff;}.b{fill:#0f2538;}.b,.c{stroke:#fff;stroke-miterlimit:10;}</style></defs><circle class="a" cx="96" cy="96" r="96"/><path class="b" d="M246.992,278.513c.227.054.333.07.431.106q1.332.485,2.661.978a63.576,63.576,0,0,0,8.586,2.635,15.937,15.937,0,0,0,4.578.434,5.134,5.134,0,0,0,4.307-2.323q3.665-5.853,7.285-11.734a4.741,4.741,0,0,0,.568-3.657,11.668,11.668,0,0,0-2.2-4.351,55.008,55.008,0,0,0-5.773-6.377c-1.079-1.068-2.2-2.1-3.391-3.228.219.059.32.08.418.111,3.133,1.061,6.25,2.173,9.409,3.161a17.955,17.955,0,0,0,6.268.914,5.515,5.515,0,0,0,4.8-2.8c2.186-3.636,4.459-7.226,6.694-10.839a5.767,5.767,0,0,0,.49-.9,2.015,2.015,0,0,0-.795-2.477,1.974,1.974,0,0,0-2.534.372,1.634,1.634,0,0,1-1.345.6,15.272,15.272,0,0,1-5.182-.818c-2.872-.9-5.734-1.84-8.555-2.88-3.7-1.365-7.345-2.854-11.022-4.271a87.888,87.888,0,0,0-10.712-3.535,16.867,16.867,0,0,0-5.7-.594,4.946,4.946,0,0,0-3.951,2.237c-2.47,3.941-4.9,7.9-7.363,11.858a4.488,4.488,0,0,0-.658,2.707,9.223,9.223,0,0,0,1.92,4.676,46.243,46.243,0,0,0,5.935,6.686c1.179,1.154,2.387,2.281,3.644,3.481-.227-.072-.377-.116-.516-.165-2.908-.991-5.8-2.031-8.728-2.957a20.386,20.386,0,0,0-6.521-1.081,5.627,5.627,0,0,0-5.19,2.875c-2.227,3.742-4.568,7.419-6.875,11.115a4.779,4.779,0,0,0-.71,3.311,9.81,9.81,0,0,0,1.806,4.129,51.132,51.132,0,0,0,6.581,7.363c.97.96,1.977,1.881,3.04,2.888a3.263,3.263,0,0,1-.395-.088c-.65-.243-1.29-.5-1.946-.736a75.743,75.743,0,0,0-8.743-2.766,16.153,16.153,0,0,0-5.61-.516,4.84,4.84,0,0,0-3.783,2.175c-2.488,3.969-4.947,7.956-7.412,11.941a2.1,2.1,0,0,0,.465,2.738,2,2,0,0,0,2.7-.271,1.561,1.561,0,0,1,1.249-.6,14.66,14.66,0,0,1,4.32.557,83.312,83.312,0,0,1,9.61,3.151c3,1.117,5.961,2.323,8.939,3.492a114.136,114.136,0,0,0,11.468,3.995,21.321,21.321,0,0,0,6.266.955,5.57,5.57,0,0,0,5.014-2.839c2.23-3.724,4.557-7.388,6.854-11.074a4.87,4.87,0,0,0,.774-2.924,9.178,9.178,0,0,0-1.892-4.645,53.476,53.476,0,0,0-6.9-7.654C248.827,280.219,247.949,279.414,246.992,278.513Z" transform="translate(-148.749 -168.402)"/><path class="c" d="M247.022,278.513c.957.9,1.835,1.706,2.689,2.532a52.793,52.793,0,0,1,6.9,7.654,9.123,9.123,0,0,1,1.892,4.645,4.869,4.869,0,0,1-.774,2.924c-2.3,3.685-4.625,7.35-6.854,11.074a5.56,5.56,0,0,1-5.014,2.839,21.79,21.79,0,0,1-6.266-.955,114.146,114.146,0,0,1-11.468-3.995c-2.978-1.166-5.935-2.374-8.939-3.492a83.154,83.154,0,0,0-9.61-3.151,14.674,14.674,0,0,0-4.32-.557,1.561,1.561,0,0,0-1.249.6,2,2,0,0,1-2.7.271,2.1,2.1,0,0,1-.465-2.738c2.465-3.984,4.924-7.972,7.412-11.941a4.86,4.86,0,0,1,3.783-2.175,16.154,16.154,0,0,1,5.61.516,74.27,74.27,0,0,1,8.743,2.766c.65.24,1.29.493,1.946.735a3.247,3.247,0,0,0,.395.088c-1.063-1.007-2.064-1.928-3.04-2.888a51.548,51.548,0,0,1-6.581-7.363,9.847,9.847,0,0,1-1.806-4.129,4.78,4.78,0,0,1,.71-3.311c2.307-3.7,4.645-7.373,6.875-11.115a5.647,5.647,0,0,1,5.19-2.875,20.386,20.386,0,0,1,6.483,1.081c2.929.926,5.819,1.966,8.728,2.957.147.049.3.093.516.165-1.257-1.2-2.464-2.323-3.644-3.481a47.512,47.512,0,0,1-5.935-6.686,9.223,9.223,0,0,1-1.92-4.676,4.488,4.488,0,0,1,.666-2.7q3.677-5.934,7.363-11.858a4.959,4.959,0,0,1,3.951-2.237,16.867,16.867,0,0,1,5.7.594,85.241,85.241,0,0,1,10.725,3.543c3.677,1.417,7.326,2.906,11.022,4.271,2.821,1.032,5.677,1.982,8.555,2.88a15.4,15.4,0,0,0,5.182.818,1.634,1.634,0,0,0,1.345-.6,1.974,1.974,0,0,1,2.534-.372,2.016,2.016,0,0,1,.795,2.477,5.769,5.769,0,0,1-.49.9c-2.235,3.613-4.508,7.192-6.694,10.839a5.515,5.515,0,0,1-4.8,2.8,17.955,17.955,0,0,1-6.268-.914c-3.159-.988-6.276-2.1-9.409-3.161-.1-.031-.2-.052-.418-.111,1.195,1.133,2.323,2.16,3.391,3.228a54.578,54.578,0,0,1,5.773,6.377,11.668,11.668,0,0,1,2.2,4.351,4.741,4.741,0,0,1-.568,3.657q-3.626,5.85-7.277,11.724a5.122,5.122,0,0,1-4.307,2.323,15.935,15.935,0,0,1-4.578-.434,63.571,63.571,0,0,1-8.586-2.635q-1.329-.49-2.661-.978C247.36,278.6,247.249,278.567,247.022,278.513Zm4.6,19.871c-1.948-.454-3.9-.774-5.742-1.37-3.739-1.231-7.437-2.594-11.128-3.961-3.03-1.123-6.016-2.351-9.032-3.5a72.765,72.765,0,0,0-8.9-2.885,13.751,13.751,0,0,0-4.317-.516,1.187,1.187,0,0,0-1.058.552c-1.394,2.276-2.808,4.539-4.214,6.81-.07.114-.124.24-.16.31,1.455.3,2.888.552,4.292.911a92.345,92.345,0,0,1,10.245,3.471c3.017,1.156,6.013,2.351,9.032,3.512a82.861,82.861,0,0,0,11.93,3.933,10.729,10.729,0,0,0,3.871.328,1.089,1.089,0,0,0,.844-.563c1.29-2.114,2.6-4.209,3.9-6.31.155-.271.317-.532.436-.728Zm-25.636-35.1-.258.416q-2.132,3.414-4.258,6.836a.728.728,0,0,0-.106.493,5.229,5.229,0,0,0,.415,1.265,19.666,19.666,0,0,0,3.277,4.33c2.064,2.1,4.142,4.2,6.284,6.217,2.488,2.346,5.061,4.6,7.572,6.921a5.278,5.278,0,0,0,1.83,1.117,73.981,73.981,0,0,0,9.427,2.937,9.593,9.593,0,0,0,3.538.274c.774-.116.872-.281.576-1.017A11.689,11.689,0,0,0,252,289.543c-1.775-1.941-3.566-3.871-5.445-5.706-2.052-2.005-4.219-3.886-6.317-5.843-2.975-2.769-5.977-5.512-8.877-8.361-1.512-1.484-2.839-3.159-4.24-4.769a17.685,17.685,0,0,1-1.135-1.579Zm17.019-27.432-.258.4c-1.365,2.2-2.72,4.405-4.1,6.591a1.223,1.223,0,0,0-.152,1.146,5.75,5.75,0,0,0,.346.774,23.5,23.5,0,0,0,4.3,5.455c2.206,2.206,4.475,4.351,6.754,6.483,2.212,2.065,4.465,4.085,6.71,6.119a1.357,1.357,0,0,0,.444.258c1.391.516,2.782,1.017,4.183,1.5a38.568,38.568,0,0,0,7.484,1.972,5.221,5.221,0,0,0,2.815-.183,9.067,9.067,0,0,0-.343-1.141,13.246,13.246,0,0,0-2.5-3.613c-2.036-2.155-4.08-4.3-6.222-6.346-2.8-2.663-5.7-5.215-8.544-7.822a100.523,100.523,0,0,1-8.186-8.126c-.934-1.094-1.786-2.276-2.725-3.471Zm42.8,7.422-.243-.046c-1.791-.377-3.626-.617-5.363-1.156-3.043-.939-6.039-2.021-9.032-3.12-2.865-1.058-5.677-2.24-8.539-3.324-2.581-.983-5.19-1.948-7.817-2.839a28.611,28.611,0,0,0-6.521-1.579,15.039,15.039,0,0,0-2.181.049c-.3.015-.426.212-.32.516a8.911,8.911,0,0,0,.444,1.156,20.819,20.819,0,0,0,3.59,4.689c1.719,1.781,3.5,3.492,5.267,5.226a1.729,1.729,0,0,0,.557.346c.79.315,1.587.609,2.382.914,3.468,1.337,6.914,2.73,10.41,3.992,2.47.893,5,1.652,7.523,2.39a11.306,11.306,0,0,0,4.364.516,1.369,1.369,0,0,0,.908-.413C282.789,248.185,284.278,245.754,285.811,243.277Zm-17.056,27.5c-.7-.106-1.326-.183-1.946-.294a52.927,52.927,0,0,1-8.666-2.526c-3.52-1.29-7-2.668-10.5-4.028-3.933-1.533-7.848-3.117-11.923-4.255a48.686,48.686,0,0,0-5.006-1.009,3.017,3.017,0,0,0-2.01.245c.018.168.026.312.054.452a2.01,2.01,0,0,0,.1.32,11.031,11.031,0,0,0,1.933,3.146,61.965,61.965,0,0,0,6.126,6.436,6.768,6.768,0,0,0,1.822,1.448c2.975,1.246,5.987,2.41,9.006,3.551a91.517,91.517,0,0,0,10.656,3.6,38.26,38.26,0,0,0,4.348.668,1.553,1.553,0,0,0,1.806-.963,9.21,9.21,0,0,1,.715-1.174Z" transform="translate(-148.779 -168.402)"/><path class="b" d="M270.413,468.433c-.119.2-.281.457-.444.717-1.3,2.1-2.617,4.2-3.9,6.31a1.089,1.089,0,0,1-.844.563,10.972,10.972,0,0,1-3.871-.328,82.854,82.854,0,0,1-11.93-3.933c-3.014-1.161-6.01-2.356-9.032-3.512a90.6,90.6,0,0,0-10.248-3.463c-1.4-.359-2.839-.606-4.292-.911.036-.07.09-.2.16-.31,1.406-2.271,2.821-4.534,4.214-6.81a1.187,1.187,0,0,1,1.058-.552,13.742,13.742,0,0,1,4.317.516,72.76,72.76,0,0,1,8.9,2.885c3.019,1.146,6.005,2.374,9.032,3.5,3.69,1.368,7.388,2.73,11.128,3.961C266.516,467.669,268.469,467.979,270.413,468.433Z" transform="translate(-167.566 -338.454)"/><path class="b" d="M285.881,367.67c.395.563.717,1.11,1.125,1.579,1.391,1.61,2.728,3.285,4.24,4.769,2.9,2.839,5.9,5.592,8.877,8.361,2.1,1.956,4.266,3.837,6.317,5.843,1.879,1.835,3.67,3.765,5.445,5.706a11.687,11.687,0,0,1,2.292,3.53c.3.735.2.9-.575,1.017a9.769,9.769,0,0,1-3.538-.274,73.968,73.968,0,0,1-9.427-2.937,5.277,5.277,0,0,1-1.83-1.117c-2.511-2.323-5.084-4.575-7.572-6.921-2.142-2.021-4.217-4.116-6.284-6.217a19.667,19.667,0,0,1-3.277-4.33,5.23,5.23,0,0,1-.416-1.264.728.728,0,0,1,.106-.493q2.119-3.422,4.258-6.836Z" transform="translate(-208.67 -272.787)"/><path class="b" d="M415.873,255.378c-1.548,2.477-3.027,4.9-4.563,7.308a1.369,1.369,0,0,1-.908.413,11.305,11.305,0,0,1-4.364-.516c-2.526-.738-5.053-1.5-7.523-2.39-3.5-1.262-6.942-2.655-10.41-3.992-.795-.3-1.592-.6-2.382-.914a1.729,1.729,0,0,1-.557-.346c-1.763-1.734-3.548-3.445-5.267-5.226a20.817,20.817,0,0,1-3.59-4.689,8.911,8.911,0,0,1-.444-1.156c-.106-.3.023-.493.32-.516a15.044,15.044,0,0,1,2.181-.049,28.613,28.613,0,0,1,6.521,1.579c2.627.89,5.226,1.855,7.817,2.839,2.857,1.084,5.677,2.266,8.539,3.324,2.986,1.1,5.982,2.181,9.032,3.12,1.737.539,3.572.774,5.363,1.156Z" transform="translate(-278.84 -180.503)"/><path class="b" d="M349.754,361.663l-3.484,5.613a9.2,9.2,0,0,0-.715,1.174,1.551,1.551,0,0,1-1.806.963,38.261,38.261,0,0,1-4.348-.668,91.51,91.51,0,0,1-10.655-3.6c-3.019-1.141-6.031-2.3-9.006-3.551a6.768,6.768,0,0,1-1.822-1.448,61.452,61.452,0,0,1-6.126-6.436,10.916,10.916,0,0,1-1.933-3.146,2.009,2.009,0,0,1-.1-.32c-.028-.139-.036-.284-.054-.452a3.017,3.017,0,0,1,2.01-.245,48.7,48.7,0,0,1,5.006,1.009,126.35,126.35,0,0,1,11.923,4.255c3.494,1.36,6.968,2.743,10.5,4.028a52.964,52.964,0,0,0,8.666,2.526C348.428,361.482,349.052,361.557,349.754,361.663Z" transform="translate(-229.777 -259.288)"/></svg>