<svg xmlns="http://www.w3.org/2000/svg" width="186" height="186" viewBox="0 0 186 186"><defs><style>.a{fill:#fff;}.b{fill:#0f2538;}</style></defs><circle class="a" cx="93" cy="93" r="93"/><rect class="b" width="3.547" height="18.75" transform="translate(104.001 95.206) rotate(43.27)"/><rect class="b" width="3.547" height="18.75" transform="translate(106.912 108.378) rotate(133.27)"/><path class="b" d="M293.21,427.19v-3.85h3.873v3.85Z" transform="translate(-219.908 -317.505)"/><path class="b" d="M233.275,443.217H229.35v-3.9h3.89v3.935Z" transform="translate(-172.013 -329.49)"/><path class="b" d="M244.91,454.948h3.932v3.9h-3.9V454.91Z" transform="translate(-183.682 -341.182)"/><path class="b" d="M277.21,475.2V471.35h3.873V475.2Z" transform="translate(-207.908 -353.513)"/><path class="b" d="M249.107,491.24H245.26v-3.85h3.847Z" transform="translate(-183.945 -365.543)"/><path class="b" d="M233.173,519.25V523.1H229.3V519.25Z" transform="translate(-171.975 -389.438)"/><path class="b" d="M293.2,539.188V535.33h3.878v3.857Z" transform="translate(-219.9 -401.497)"/><path class="b" d="M249.175,555.215h-3.8V551.32h3.8Z" transform="translate(-184.027 -413.49)"/><path class="b" d="M308.978,289.129v7.6c-2.973,0-5.878.06-8.78,0q-18.18-.46-36.355-.96c-8.5-.23-17-.462-25.485-.75a1.62,1.62,0,0,0-1.915,1.323c-1.94,5.545-6.232,8.582-11.675,9.857-9.16,2.148-17.268-.332-24.315-6.415a11.817,11.817,0,0,1-2.3-2.93c-1.84-3.1-1.327-6.588,1.365-9.65,3.22-3.658,7.41-5.707,12-7.027,6.19-1.78,12.25-1.663,18.012,1.525a13.874,13.874,0,0,1,7.048,8.365,1.119,1.119,0,0,0,1.313.943q11.617-.36,23.237-.652,11.67-.305,23.36-.587l23.613-.625C308.348,289.124,308.6,289.129,308.978,289.129Zm-89.7-6.145a24.666,24.666,0,0,0-15.12,5.188c-1.2.923-1.478,2.12-.713,3.1s1.9.98,3.1.177a28.977,28.977,0,0,1,3.813-2.348c4.35-2,8.87-2.94,13.522-1.168,2.568.975,4.915,2.3,5.228,5.555a1.756,1.756,0,0,0,2.105,1.518,1.83,1.83,0,0,0,1.817-1.86,7.266,7.266,0,0,0-2.238-5.5C227.615,284.3,223.563,283.1,219.28,282.984Z" transform="translate(-147.795 -209.267)"/></svg>