<svg xmlns="http://www.w3.org/2000/svg" width="192" height="192" viewBox="0 0 192 192"><defs><style>.a{fill:#fff;}.b{fill:#0f2538;}</style></defs><circle class="a" cx="96" cy="96" r="96"/><path class="b" d="M299.6,221.2c-2.065.542-6.426,1.523-9.677,2.168-8.284,1.626-9.6,2.116-13.29,4.852-5.239,3.9-8.9,11.432-8.877,18.271.026,2.606.413,4.465.852,3.974a11.806,11.806,0,0,0,.774-1.652c1.574-3.794,6.142-9.574,10.039-12.7,1.987-1.6,5.987-3.174,5.987-2.348a18.212,18.212,0,0,1-2.994,3.69,44.245,44.245,0,0,0-4.9,6.452,102.757,102.757,0,0,0-9.445,19.1c-2.529,6.735-4.387,12.1-5.626,16.129-2.09,6.89-3.974,12.335-4.31,12.439-.413.155-1.548-3.535-3.923-12.7-3.69-14.348-5.265-19.277-9.032-28.258-2.581-6.116-5.987-11.019-12.9-18.529-3.794-4.155-9.187-8.129-12.439-9.213-2.116-.723-2.3-.361-.7,1.419a105.238,105.238,0,0,1,16.516,23.742c3.9,7.613,6.581,15.174,11.458,32.516,1.239,4.439,3.974,15.742,4.852,20.129.981,4.877,2.064,9.652,2.348,10.4a1.489,1.489,0,0,0,.877.645,26.03,26.03,0,0,0,6.013,0c1.342-.387,1.6-1.445,3.458-13.626a140.949,140.949,0,0,1,4.413-20.516c3.587-12.542,7.406-21.729,9.729-23.226a17.864,17.864,0,0,1,3.716-.9c6.71-1.11,12.1-4.077,15.923-8.8,2.555-3.148,3.226-5.471,3.871-13.213a28.261,28.261,0,0,1,1.316-7.716,16.616,16.616,0,0,0,.774-3.226C304.223,220.041,303.81,220.093,299.6,221.2Z" transform="translate(-161.797 -163.396)"/></svg>