<svg xmlns="http://www.w3.org/2000/svg" viewBox="0 0 1012.51 495.64"><defs><style>.cls-1{fill:#0f2539;}.cls-2{fill:#aec336;}.cls-3{fill:#e2a315;}.cls-4{fill:#fcc849;}.cls-5{fill:#e8b33d;}</style></defs><title>Logo Navy</title><g id="Layer_2" data-name="Layer 2"><g id="Layer_1-2" data-name="Layer 1"><path class="cls-1" d="M160.34,408.64v83.25h10.93V494H131.21v-2.12H142V451H108v40.88h10.75V494H78.65v-2.12H89.52V408.64H78.65v-2.13h40.06v2.13H108v40.25h34V408.64H131.21v-2.13h40.06v2.13Z"/><path class="cls-1" d="M229.77,482.33a28.35,28.35,0,0,1-24.06,13.31c-16.56,0-30.94-12.63-30.94-30.44,0-17.31,13.5-30.44,30.63-30.44,18.75,0,24.87,14.82,24.44,27.63H191.71c0,16.87,4.19,29.87,18.38,29.87,8.06,0,14.25-5,18.12-11.12Zm-16.68-22.07v-2c0-10.56-2.38-21.37-10-21.37s-10.88,10-11.32,23.37Z"/><path class="cls-1" d="M297.4,488.14a15.22,15.22,0,0,1-13.57,7.5c-7.37,0-11.12-4.31-12-9.75-2.06,5.31-9.31,9.75-17.31,9.75-8.31,0-17.19-4.56-17.19-14.94,0-8.81,5.75-10.94,17.38-14.06,8-2.19,17.37-4.88,17.37-15.94,0-8.5-5.31-13.37-14.43-13.37-9.38,0-14.69,5.37-14.82,11a6.9,6.9,0,0,1,6.82-5.44,7,7,0,0,1,7.12,7.31,7.38,7.38,0,0,1-7.56,7.5c-4.19,0-8.25-3-8.25-9,0-8.44,8-13.94,20.75-13.94,16.75,0,25.75,9.5,25.75,25.94v26.94c0,2.06.87,3.37,2.87,3.37s4-1.43,5.69-4.43ZM255.15,468.7c-.88,1.25-2.07,5-2.07,10.19,0,9.06,3.88,12.37,8.25,12.37,6.07,0,9.94-6.25,10.38-9.18V458.76C269.65,463.58,263.71,466.33,255.15,468.7Z"/><path class="cls-1" d="M333.27,491.89V494H299.33v-2.12h9.13V408.64h-9.13v-2.13a138.07,138.07,0,0,0,24.88-1.81v87.19Z"/><path class="cls-1" d="M375.08,487c-3.19,5.06-7.87,8.69-15.69,8.69-12,0-16.25-8.88-16.25-21.38V438.51h-8.62v-2.12h8.62v-9.31c5-1.13,12.25-5.88,15.75-10.38v19.69h14.75v2.12H358.89v44.38c0,6.62,2.57,8.87,6.13,8.87,3.75,0,6.56-2.87,8.44-5.93Z"/><path class="cls-1" d="M449.58,491.89V494H416.64v-2.12h8.13V450.51c0-7.93-2.94-11.31-7.69-11.31-9.12,0-14.19,12-14.19,17.63v35.06h8.5V494H378v-2.12h9.12V408.64H378v-2.13a138,138,0,0,0,24.87-1.81v44.44c2.44-6.56,8.5-14.38,20.31-14.38s17.38,7.82,17.38,21.25v35.88Z"/><path class="cls-1" d="M489.7,494v-2.12h10.88V408.64H489.7v-2.13h68.5l1.07,30.57-2,.06-.25-4.38c-.69-11.56-6.25-24.12-28-24.12H519v41.69h3.87a32.4,32.4,0,0,0,6.5-.57c6.19-1.5,9.56-8.37,10.06-16.62h2v36.37h-2c-.56-9.56-3.93-15.31-9.93-16.62a34.36,34.36,0,0,0-6.63-.5H519v39.5h12.12V494Z"/><path class="cls-1" d="M619.2,465.26a30.47,30.47,0,1,1-30.5-30.5A30.22,30.22,0,0,1,619.2,465.26Zm-30.43-28.43c-11,0-13.57,12.56-13.57,27.68,0,17.07,3,29.07,13.57,29.07s13.5-12.07,13.5-28.94C602.27,449.33,599.52,436.83,588.77,436.83Z"/><path class="cls-1" d="M687.89,465.26a30.47,30.47,0,1,1-30.5-30.5A30.22,30.22,0,0,1,687.89,465.26Zm-30.44-28.43c-11,0-13.56,12.56-13.56,27.68,0,17.07,3,29.07,13.56,29.07S671,481.51,671,464.64C671,449.33,668.2,436.83,657.45,436.83Z"/><path class="cls-1" d="M763.76,491.89V494H742.57a12.84,12.84,0,0,0-4.18-7.25c-2.44,4.44-8.5,8.88-17.25,8.88-14.13,0-25.5-12.44-25.5-31,0-18.13,11-29.88,25.37-29.88,10.69,0,16.19,5.88,17.94,10V408.64h-9.13v-2.13a136.61,136.61,0,0,0,24.82-1.81v87.19Zm-37.69-53.56c-9.12,0-13.5,11.06-13.5,26.62,0,14.44,3.63,27.25,13.57,27.25a12.75,12.75,0,0,0,12-9.19c1.06-3.68,1.5-12.18,1.5-19.87a97.21,97.21,0,0,0-.69-13.56C738,444.64,733.14,438.33,726.07,438.33Z"/><path class="cls-1" d="M876.7,462.2,875.07,494H803.89v-2.12h10.87V408.64H803.89v-2.13h40.25v2.13H833.2v83.25h11.94c21.43,0,28.5-12.81,29.18-25.25l.25-4.56Z"/><path class="cls-1" d="M921.26,487c-3.19,5.06-7.87,8.69-15.69,8.69-12,0-16.25-8.88-16.25-21.38V438.51H880.7v-2.12h8.62v-9.31c5-1.13,12.25-5.88,15.75-10.38v19.69h14.75v2.12H905.07v44.38c0,6.62,2.57,8.87,6.13,8.87,3.75,0,6.56-2.87,8.44-5.93Z"/><path class="cls-1" d="M992.38,491.89V494H971.2a12.91,12.91,0,0,0-4.19-7.25c-2.44,4.44-8.5,8.88-17.25,8.88-14.13,0-25.5-12.44-25.5-31,0-18.13,11-29.88,25.37-29.88,10.69,0,16.19,5.88,17.94,10V408.64h-9.12v-2.13a136.57,136.57,0,0,0,24.81-1.81v87.19ZM954.7,438.33c-9.13,0-13.5,11.06-13.5,26.62,0,14.44,3.62,27.25,13.56,27.25a12.74,12.74,0,0,0,12-9.19c1.06-3.68,1.5-12.18,1.5-19.87a97.21,97.21,0,0,0-.69-13.56C966.63,444.64,961.76,438.33,954.7,438.33Z"/><path class="cls-1" d="M205.18,134.43v4.8h-.7c-17.12,0-30.55,15.42-54,77.5l-44.4,117.65H93.75L19.09,139.23H0v-4.8H85.83v4.8H63.77L119.35,286l26.16-70.43c7.07-18.8,9.9-33.65,9.9-45.1,0-22.06-10.61-31.26-22.77-31.26H130.8v-4.8Z"/><path class="cls-1" d="M268.26,327.59v4.81H191.48v-4.81H212V206.83h-20.5V202c19.37,0,37-.71,56.13-4.1V327.59Z"/><path class="cls-1" d="M373.33,240.48c-9.62,0-17.82-7.35-17.82-17.25a16.72,16.72,0,0,1,16.69-17.11,17,17,0,0,1,14.28,7.78c-2.55-6.79-8.91-11.17-18-11.17-27.43,0-37.61,39.87-37.61,73.81v51h22.34v4.81H274.77v-4.81h20.5V206.83h-20.5V202c18.8,0,37.05-.71,56.14-4.1v46.81c3.95-24.89,15.27-46.39,37.33-46.39,14.28,0,23.47,8.91,23.47,21.92C391.71,233,383.08,240.48,373.33,240.48Z"/><path class="cls-1" d="M485.21,312c-9.61,0-47.23,1.09-55.43,1.06-11.32,0-16.11-2.61-16.09-8.41,0-7.49,8.53-13.25,23-16.17a76.85,76.85,0,0,0,29,5.49c37.75.14,57.64-23.4,57.73-48,.06-15.84-8-29-21.06-37.42,14.14-1.92,22.53-12.92,22.57-24.66.06-13.15-8.68-21.38-19-21.42-9.48,0-17.42,6.72-17.46,16.76,0,9.61,7.43,15.72,16.06,15.76,8.2,0,14.73-5.18,15.6-12.67.81,11.46-8.43,23.16-24.69,22.53a73.67,73.67,0,0,0-30.94-6.48c-37.62-.15-56.52,24.1-56.61,48.57-.06,16.54,8.51,30.29,23,38.69-19.39,5-28.63,17.14-28.68,30.15,0,11.6,6.14,22.08,20.4,27.23l.19.3c.78-.19,1.58-.35,2.43-.48a81.57,81.57,0,0,0,10.87.6c9.61,0,44.28-1.2,52.47-1.2,16.71,0,26.48,4.95,26.48,17.4,0,9.78-3.34,16.13-11.22,20.1s28.52-.38,28.63-31.21C532.53,325.16,513.78,312.08,485.21,312ZM465.39,203c16.12,0,21.5,16.54,21.5,43.13s-5.23,43-21.5,43c-16.68,0-21.35-17-21.35-43S448.85,203,465.39,203Z"/><path class="cls-1" d="M617.13,327.59v4.81H540.34v-4.81h20.51V206.83H540.34V202c19.37,0,37-.71,56.14-4.1V327.59Z"/><path class="cls-1" d="M783.43,327.59v4.81h-74v-4.81h17.67V234.68c0-18.66-6.5-26.3-17.39-26.3-19.37,0-29.84,25.6-29.84,37.62v81.59h18v4.81H623.63v-4.81h20.51V206.83H623.63V202c18.81,0,37.19-.85,56.14-4.1v31c5.24-13.72,18.1-30.55,43.84-30.55,26.87,0,39.17,17.68,39.17,48.08v81.17Z"/><path class="cls-1" d="M866.29,327.59v4.81H789.51v-4.81H810V206.83h-20.5V202c19.37,0,37-.71,56.14-4.1V327.59Z"/><path class="cls-1" d="M1012.51,319.11c-5.8,9.47-15.7,17-30.68,17-16.69,0-25.17-9.75-27.15-22.06-4.67,12-21.07,22.06-39.17,22.06-18.81,0-38.89-10.32-38.89-33.79,0-19.94,13-24.75,39.31-31.82,18.1-4.95,39.31-11,39.31-36.06,0-19.23-12-30.26-32.66-30.26-21.22,0-33.23,12.16-33.52,24.89,1.42-5.8,6.37-12.3,15.42-12.3,9.61,0,16.12,7.49,16.12,16.54a16.71,16.71,0,0,1-17.11,17c-9.48,0-18.67-6.79-18.67-20.36,0-19.09,18.1-31.54,46.95-31.54,37.89,0,58.26,21.5,58.26,58.69V318c0,4.67,2,7.64,6.5,7.64,4.67,0,9.05-3.25,12.87-10Zm-95.59-44c-2,2.83-4.67,11.31-4.67,23.05,0,20.5,8.77,28,18.67,28,13.72,0,22.49-14.14,23.48-20.79V252.64C949.73,263.53,936.29,269.75,916.92,275.13Z"/><path class="cls-2" d="M966.19,133.92s15.47-4.24,21.12,7-9.84,15.5-9.84,15.5S803,215.74,534,65.46C534,65.46,787.51,191.84,966.19,133.92Z"/><path class="cls-3" d="M584.46,36.66C608.4,51.49,619.93,76.25,610.2,92s-37,16.42-61,1.59-30.6-58.31-30.6-58.31S560.51,21.83,584.46,36.66Z"/><path class="cls-4" d="M565.59,132.1c28.16,1,51.48-13.25,52.11-31.72S596,66.18,567.85,65.23,510,96.75,510,96.75,537.44,131.15,565.59,132.1Z"/><path class="cls-5" d="M626.37,34c13.39,24.78,11.06,52-5.2,60.77s-40.29-4.18-53.68-29S570,0,570,0,613,9.21,626.37,34Z"/></g></g></svg>