<svg xmlns="http://www.w3.org/2000/svg" width="46.385" height="49.254" viewBox="0 0 46.385 49.254"><defs><style>.a{fill:#017f00;}</style></defs><g transform="translate(0)"><path class="a" d="M46.877-358.248c-1.109.291-3.452.818-5.2,1.165-4.451.873-5.158,1.137-7.14,2.607a12.878,12.878,0,0,0-4.769,9.816c.014,1.4.222,2.4.458,2.135a6.344,6.344,0,0,0,.416-.887,21.153,21.153,0,0,1,5.393-6.822c1.068-.86,3.217-1.705,3.217-1.262a9.784,9.784,0,0,1-1.608,1.983,23.773,23.773,0,0,0-2.634,3.466,55.206,55.206,0,0,0-5.075,10.26c-1.359,3.619-2.357,6.5-3.023,8.665a46.4,46.4,0,0,1-2.315,6.683c-.222.083-.832-1.9-2.107-6.822-1.983-7.709-2.828-10.357-4.853-15.182-1.386-3.286-3.217-5.92-6.932-9.955a19.983,19.983,0,0,0-6.683-4.95c-1.137-.388-1.234-.194-.374.763a56.54,56.54,0,0,1,8.873,12.756c2.094,4.09,3.536,8.152,6.156,17.47.666,2.385,2.135,8.458,2.607,10.815.527,2.62,1.109,5.185,1.262,5.588a.8.8,0,0,0,.471.347,13.985,13.985,0,0,0,3.23,0c.721-.208.86-.776,1.858-7.321a75.728,75.728,0,0,1,2.371-11.023c1.927-6.738,3.979-11.674,5.227-12.478a9.6,9.6,0,0,1,2-.485,13.445,13.445,0,0,0,8.555-4.728c1.373-1.692,1.733-2.939,2.08-7.1a15.183,15.183,0,0,1,.707-4.146,8.925,8.925,0,0,0,.416-1.733C49.359-358.872,49.137-358.844,46.877-358.248Z" transform="translate(-3.075 358.77)"/></g></svg>