<svg xmlns="http://www.w3.org/2000/svg" width="101.896" height="101.896" viewBox="0 0 101.896 101.896"><defs><style>.a{fill:#06507f;}.a,.b,.c{fill-rule:evenodd;}.b{fill:#fff100;}.c{fill:#bb251f;}</style></defs><path class="a" d="M0,101.9H101.9V0H0Z"/><path class="b" d="M53.231,8A45.2,45.2,0,1,0,98.463,53.231,45.267,45.267,0,0,0,53.231,8Z" transform="translate(-2.247 -2.247)"/><path class="c" d="M60.286,69.482,52.3,61.5l-9.2,9.276v3.092L45.4,71.5l6.4,6.472L49.428,80.34l1.582,1.51,12.8-12.872V65.887Z" transform="translate(-12.107 -17.275)"/><path class="a" d="M15.1,59.2H29.338v3.092H26.965v9.924l8.27-4.6v8.413H15.1V72.935h2.445V62.292H15.1Z" transform="translate(-4.242 -16.629)"/><path class="a" d="M98.5,59.2v3.092h2.373V72.935H98.5v3.092h20.063V67.613l-8.2,4.6V62.292h2.373V59.2Z" transform="translate(-27.669 -16.629)"/><path class="c" d="M52.234,45.9a5.034,5.034,0,0,1,0,10.067,5.034,5.034,0,1,1,0-10.067Z" transform="translate(-13.258 -12.893)"/><path class="c" d="M52.052,3.8A48.252,48.252,0,1,0,100.3,52.052,48.305,48.305,0,0,0,52.052,3.8Zm0,93.411A45.2,45.2,0,1,1,97.283,52.052,45.206,45.206,0,0,1,52.052,97.211Z" transform="translate(-1.067 -1.067)"/><path class="a" d="M82.191,59.2H68.6v3.092h2.373V72.935H68.6v3.092H82.119C92.186,76.027,92.33,59.2,82.191,59.2Z" transform="translate(-19.27 -16.629)"/><path class="b" d="M84.547,72.828H83.9V66.5h.575C87.424,66.5,87.424,72.828,84.547,72.828Z" transform="translate(-23.567 -18.68)"/></svg>