<svg xmlns="http://www.w3.org/2000/svg" width="229.695" height="35.806" viewBox="0 0 229.695 35.806"><defs><style>.a{fill:#ff4141;}.b{fill:#007c2c;}</style></defs><path class="a" d="M128.454,6.982a5.2,5.2,0,0,0-3.581,1.164L112.789,24.8a2.384,2.384,0,1,0,3.939,2.685l2.685-3.67h18.082l2.685,3.67a2.384,2.384,0,1,0,3.939-2.685L132.124,8.235a5.3,5.3,0,0,0-3.67-1.253m-.627,5.371L122.546,19.6h11.905l-5.281-7.251a.814.814,0,0,0-.716-.358.6.6,0,0,0-.627.358m41.356,8.325,5.192,6.893a2.426,2.426,0,1,0,3.849-2.954l-3.4-4.476a6.7,6.7,0,0,0-2.6-12.89H155.308a4.393,4.393,0,0,0-4.386,4.386v14.5a2.417,2.417,0,1,0,4.834,0v-14.5h16.023a2.327,2.327,0,0,1,0,4.655H157.546a4.393,4.393,0,0,0,4.386,4.386h7.251Zm-66.778,0a6.714,6.714,0,1,0,0-13.427l-16.918-.09A4.393,4.393,0,0,0,81.1,11.547v14.5a2.417,2.417,0,1,0,4.834,0V11.637h16.023a2.327,2.327,0,0,1,0,4.655H87.814A4.393,4.393,0,0,0,92.2,20.678h10.2Zm-38.312-.716a2.082,2.082,0,0,1,2.059,2.059,2.026,2.026,0,0,1-2.059,2.059H43.952a4.393,4.393,0,0,0,4.386,4.386H64.451A6.418,6.418,0,0,0,70.9,22.021a6.343,6.343,0,0,0-6.445-6.356H50.665a2.082,2.082,0,0,1-2.059-2.059,2.026,2.026,0,0,1,2.059-2.059H70.806A4.393,4.393,0,0,0,66.42,7.161H50.307a6.418,6.418,0,0,0-6.445,6.445,6.343,6.343,0,0,0,6.445,6.356H64.093ZM183.506,35.806H0V0H183.506Z"/><path class="b" d="M248.652,18.082a14.592,14.592,0,0,0-29.182,0,13.428,13.428,0,0,0,3.939,9.847,8.344,8.344,0,0,0,6.893,2.238c.806-.269,1.88-1.164,1.88-1.88v-3.4h-9.668a81.064,81.064,0,0,0,11.547-20.23,81.065,81.065,0,0,0,11.547,20.23h-9.668v3.4c0,.716,1.074,1.611,1.88,1.88a7.979,7.979,0,0,0,6.893-2.238,14.1,14.1,0,0,0,3.939-9.847m-32.852,0a18.262,18.262,0,0,1,36.522,0,17.942,17.942,0,0,1-18.261,17.724c-10.115,0-18.261-7.788-18.261-17.724" transform="translate(-22.627)"/></svg>